<svg viewBox="0 0 237 1000" xmlns="http://www.w3.org/2000/svg" fill-rule="evenodd" clip-rule="evenodd" stroke-linejoin="round" stroke-miterlimit="1.414"><g fill="#231f20"><path d="M31.14 1000C10.682 1000 .452 989.9.452 969.696c0-20.2 10.23-30.303 30.688-30.303h18.888v17.949H31.14c-8.647 0-12.996 4.092-13.049 12.28v.159c0 8.185 4.346 12.27 13.049 12.27h14.379c7.821 0 17.067-7.454 27.735-22.373 9.688-13.519 21.213-20.285 34.573-20.285h19.967c20.514 0 30.772 10.082 30.772 30.229-.049 20.25-10.308 30.378-30.772 30.378h-18.877v-17.949h18.877c8.703 0 13.06-4.142 13.06-12.429 0-8.188-4.357-12.28-13.06-12.28H109.77c-8.442 0-17.998 7.461-28.67 22.38C71.413 993.241 59.708 1000 45.981 1000H31.14zm0-116.375c-8.647 0-12.996 4.092-13.049 12.277v.158c0 8.181 4.346 12.273 13.049 12.273h96.654c8.703 0 13.06-4.113 13.06-12.354 0-8.234-4.357-12.354-13.06-12.354H31.14zm96.654-17.949c20.464 0 30.723 10.1 30.772 30.303 0 20.204-10.258 30.304-30.772 30.304H31.14c-20.458 0-30.688-10.1-30.688-30.304 0-20.203 10.23-30.303 30.688-30.303h96.654zm-9.011-61.832L2.938 775.399v-18.408h153.067v17.011H47.614l108.391 23.784v11.575L48.157 833.759h107.848v17.247H2.938v-18.485l115.845-28.677zM70.614 691.582h17.713v31.235h50.038V686.53h17.639v54.233H2.937V686.53h17.639v36.287h50.038v-31.235zM2.939 619.8h17.638v21.297h135.428v17.942H20.577v21.368H2.939V619.8zm0-10.005v-17.942h67.676v-24.708H2.939v-17.957h153.066v17.957H88.328v24.708h67.677v17.942H2.939z" fill-rule="nonzero"/><path d="M2.938 514.635v17.949h153.067v-17.949H2.938z"/><path d="M2.939 498.023v-18.418l109.939-25.947H3.249l-.236-16.235h152.992v18.411L48.778 480.927h107.227v17.096H2.939zm124.856-135.881c20.465 0 30.724 10.107 30.773 30.303 0 20.2-10.262 30.304-30.773 30.304H31.142C10.684 422.749.45 412.645.45 392.445c0-20.196 10.234-30.303 30.692-30.303h18.884v17.949H31.142c-8.65 0-12.997 4.092-13.053 12.277v.158c0 8.188 4.35 12.274 13.053 12.274h96.653c8.704 0 13.057-4.114 13.057-12.355 0-8.233-4.353-12.354-13.057-12.354H88.327v11.501H70.614v-29.45h57.181zm-9.012-97.317L2.938 236.381v-18.415h153.067v17.018H47.614l108.391 23.77v11.581L48.157 294.737h107.848v17.244H2.938v-18.493l115.845-28.663zM31.14 160.645c-8.647 0-12.996 4.093-13.049 12.274v.155c0 8.188 4.346 12.28 13.049 12.28h96.654c8.703 0 13.06-4.12 13.06-12.354 0-8.234-4.357-12.355-13.06-12.355H31.14zm96.654-17.949c20.464 0 30.723 10.1 30.772 30.304 0 20.203-10.258 30.303-30.772 30.303H31.14C10.682 203.303.452 193.203.452 173c0-20.204 10.23-30.304 30.688-30.304h96.654zM20.577 110.079h50.038v-7.613c0-3.468-.257-5.955-.779-7.461-2.124-5.13-6.245-7.691-12.355-7.691H33.785c-8.805 0-13.208 4.092-13.208 12.277v10.488zM2.939 128.028V97.262c.056-18.594 10.336-27.897 30.846-27.897h23.696c12.796 0 21.47 6.195 26.032 18.577l72.492-25.262v19.819L86.31 103.087l.928 6.992h68.767v17.949H2.939zM70.614 5.045h17.713v31.238h50.038V0h17.639v54.225H2.937V0h17.639v36.283h50.038V5.045zM235.606 1000h-49.615v-6.615h43.925v-13.359h5.69V1000z" fill-rule="nonzero"/><path d="M185.991 953.761v6.614h49.614v-6.614h-49.614z"/><path d="M185.99 911.496h5.726v7.842h43.888v6.6h-43.888v7.874h-5.726v-22.316zm0-19.803v-19.967h5.726v13.36h16.22v-11.508h5.754v11.508h16.224v-13.36h5.69v19.967H185.99zm5.726-47.239h16.22v-2.804c0-1.274-.084-2.191-.257-2.755-.688-1.881-2.025-2.826-4.008-2.826h-7.697c-2.84 0-4.258 1.51-4.258 4.519v3.866zm-5.726 6.608v-11.335c.021-6.84 3.348-10.273 9.984-10.273h7.697c4.138 0 6.957 2.286 8.446 6.841l23.487-9.3v7.296l-22.577 7.588.317 2.575h22.26v6.608H185.99zm33.017-58.284l-28.035 4.201 28.035 4.205v-8.406zm-.656-6.587l17.255-2.631v6.724l-10.845 1.633v10.1l10.845 1.654v6.664l-17.198-2.564-32.417-5.814v-9.987l32.36-5.779zm-32.361-40.838h5.726v7.849h43.888v6.601h-43.888v7.874h-5.726v-22.324zm40.569-41.83c6.643 0 9.97 3.721 9.991 11.162 0 7.433-3.327 11.154-9.991 11.154h-40.453v-6.607h40.453c2.833 0 4.237-1.51 4.237-4.547 0-3.031-1.404-4.548-4.237-4.548h-40.453v-6.614h40.453zm-34.843-28.415h16.22v-2.798c0-1.281-.084-2.198-.257-2.748-.688-1.895-2.025-2.84-4.008-2.84h-7.697c-2.84 0-4.258 1.51-4.258 4.526v3.86zm-5.726 6.614v-11.335c.021-6.847 3.348-10.272 9.984-10.272h7.697c4.138 0 6.957 2.278 8.446 6.84l23.487-9.306v7.302l-22.577 7.581.317 2.576h22.26v6.614H185.99zm0-41.755V620h5.726v13.36h16.22v-11.501h5.754v11.501h16.224V620h5.69v19.967H185.99z" fill-rule="nonzero"/></g></svg>