<svg viewBox="0 0 1000 1000" xmlns="http://www.w3.org/2000/svg" fill-rule="evenodd" clip-rule="evenodd" stroke-linejoin="round" stroke-miterlimit="1.414"><path d="M663.729 802.804S648.96 684.655 644.011 655.84h102.11s47.273 107.039 64.564 147.378c0 0-44.046-4.525-74.913-4.939-30.866-.404-72.043 4.525-72.043 4.525m-67.781-.414l-2.963-146.55h37.047s9.059 97.142 11.524 122.665l2.455 25.532-48.063-1.647zm-83.2-331.023c2.577 19.22-13.782 27.686-46.69 34.516-29.822 6.2-81.667 4.779-50.857-9.341 32.597-14.93 60.161-44.78 60.161-44.78s12.954-23.341 20.461-28.929c7.649-5.635 13.199 20.509 16.925 48.534m-58.957 323.206l1.702-138.733h32.099l5.974 142.308-39.775-3.575zm389.989 3.725c-37.874-79.456-91.083-154.811-91.083-154.811 8.231-4.939 18.119-15.644 24.713-39.521 6.576-23.867 32.174-104.847 41.215-189.646 9.059-84.8-78.262-100.144-78.262-100.144s3.933-24.864-6.905-53.83c-12.728-33.989-70.905-56.868-111.62-70.208-9.812-3.218-15.767-7.366-17.037-11.252-2.663-8.241 10.291-41.496 6.839-67.414-.903-6.783-13.143-45.298-22.748-57.151-23.114-28.514-67.621-27.988-89.277 10.028-11.195 19.634-10.236 43.125-8.749 64.038 2.201 31.374 14.939 51.12 14.939 51.12 9.078 16.52 10.358 16.783 10.677 19.032.452 3.678-24.346 1.43-48.383 15.193-18.485 10.564-30.207 46.106-37.611 102.091-7.404 55.984-10.376 80.688-30.17 97.97-19.756 17.291-99.09 72.287-135.309 94.508-36.228 22.239-41.685 41.412-41.685 56.229s1.12 204.106 1.12 230.457c0 26.331 19.455 41.158 27.686 48.561 8.232 7.423 10.16 21.403 5.222 30.462-4.911 9.059-8.213 16.463-23.04 21.412-14.835 4.939-12.775 19.755-21.872 25.522-9.107 5.767-36.577 4.939-79.39 4.939-9.464 0-44.743 32.108-29.107 32.108 15.654 0 165.77-1.646 192.93-.828 27.178.828 60.453-6.397 55.156-27.159-6.077-23.877-27.188-32.362-27.188-32.362l-4.083-22.804c7.329-5.137 12.221-19.323 11.525-32.936-.762-14.996 6.576-30.452 7.403-60.086.828-29.653-7.225-87.293-7.225-115.28 0-27.988 4.394-31.243 20.123-36.21 23.312-7.375 88.102 4.93 88.102 4.93s-6.595 100.444-6.595 134.189c0 33.773-9.887 179.487-9.887 179.487l7.366-8.222c9.868-21.958 21.412-132.976 21.412-132.976l42.014 2.888s.827 9.887 2.483 27.987c1.656 18.11 1.364 62.721-5.748 67.509-9.68 6.529-9.501 8.74-16.265 26.915-5.711 15.372-7.621 31.543 3.066 32.371 10.716.819 51.874 0 84.819 0 32.926 0 37.856-13.17 36.219-26.35-1.656-13.171-18.947-16.463-18.947-30.462 0-13.998 1.656-19.746 11.543-32.098 9.859-12.353 4.111-60.105 4.111-60.105l48.581 2.465c4.102 16.463 23.81 146.917 23.81 146.917l8.232-6.594c-4.111-27.16-10.969-141.415-10.969-141.415 17.056.997 49.596 3.876 76.436 4.394 39.192.762 75.373-1.647 75.373-1.647 19.719 32.306 78.713 141.612 78.713 141.612L900 950.117s-19.455-74.724-56.22-151.819" fill="#231f20" fill-rule="nonzero"/></svg>