<?xml version="1.0" standalone="no"?>
<!DOCTYPE svg PUBLIC "-//W3C//DTD SVG 20010904//EN"
 "http://www.w3.org/TR/2001/REC-SVG-20010904/DTD/svg10.dtd">
<svg version="1.0" xmlns="http://www.w3.org/2000/svg"
 width="700.000000pt" height="700.000000pt" viewBox="0 0 700.000000 700.000000"
 preserveAspectRatio="xMidYMid meet">
<metadata>
Created by potrace 1.11, written by Peter Selinger 2001-2013
</metadata>
<g transform="translate(0.000000,700.000000) scale(0.100000,-0.100000)"
fill="#000000" stroke="none">
<path d="M3734 6745 c-69 -21 -107 -45 -164 -104 -98 -100 -137 -215 -138
-412 0 -208 39 -366 132 -524 48 -82 55 -104 34 -106 -18 -1 -39 -5 -127 -25
-87 -19 -170 -53 -218 -90 -106 -81 -189 -318 -238 -684 -3 -25 -8 -56 -10
-70 -8 -59 -15 -108 -20 -150 -25 -203 -75 -355 -144 -431 -85 -97 -481 -381
-971 -699 -141 -91 -240 -186 -278 -267 l-27 -58 3 -860 c2 -501 7 -878 13
-903 17 -78 52 -134 134 -220 89 -90 106 -125 100 -198 -4 -47 -40 -119 -78
-155 -12 -11 -50 -35 -85 -52 -47 -23 -69 -41 -90 -74 -15 -24 -36 -58 -47
-76 -34 -53 -70 -59 -345 -64 -286 -5 -290 -7 -395 -109 -60 -59 -85 -98 -70
-112 7 -8 1423 -4 1496 4 120 12 193 39 239 89 61 65 -4 218 -128 300 -35 23
-40 32 -50 89 -16 86 -15 100 8 121 28 25 49 98 55 190 5 81 11 130 20 175 13
64 16 79 22 130 9 69 8 287 -1 400 -4 47 -9 110 -11 140 -3 30 -7 87 -11 125
-17 180 -19 350 -3 407 14 53 32 74 84 98 95 43 229 44 525 4 107 -15 145 -27
136 -43 -2 -3 -7 -60 -10 -126 -4 -66 -9 -149 -11 -185 -11 -181 -18 -352 -30
-705 -9 -252 -19 -455 -30 -600 -3 -33 -7 -105 -10 -160 -3 -55 -7 -125 -10
-155 -2 -30 -7 -98 -10 -150 l-5 -95 20 25 c12 14 28 39 35 57 16 34 51 189
61 268 3 28 8 57 9 67 2 9 7 38 11 65 3 26 8 57 10 68 4 18 7 43 19 145 12
102 26 217 30 235 2 11 4 30 4 43 1 18 5 22 26 18 14 -3 78 -8 143 -11 64 -4
120 -10 124 -13 19 -20 29 -425 14 -552 -9 -75 -25 -111 -59 -133 -48 -31
-115 -212 -118 -320 -2 -74 -12 -72 384 -72 388 0 424 4 477 58 34 35 47 97
31 141 -6 15 -36 56 -66 89 -55 60 -60 72 -57 137 3 67 13 99 45 147 43 64 57
99 65 153 6 48 7 170 1 260 -3 53 -2 55 21 54 246 -12 306 -17 311 -22 4 -4
14 -52 24 -107 10 -55 19 -109 21 -120 2 -10 6 -37 9 -60 9 -60 15 -97 20
-125 5 -27 13 -76 20 -125 3 -16 9 -57 15 -90 22 -134 57 -367 59 -388 1 -4
15 2 31 15 27 19 30 26 25 62 -12 98 -15 135 -20 201 -3 39 -7 88 -10 110 -2
22 -7 85 -11 140 -3 55 -7 118 -9 140 -4 40 -18 288 -19 335 -1 25 -1 25 79
22 44 -2 82 -5 86 -7 19 -13 504 -22 764 -16 61 2 115 3 122 2 13 -1 146 -230
318 -546 21 -38 59 -108 85 -155 26 -47 69 -125 95 -175 26 -49 51 -94 55 -98
4 -5 12 11 18 35 10 39 8 56 -19 143 -77 260 -204 607 -285 783 -19 41 -34 76
-34 79 0 10 -186 376 -235 463 -83 148 -206 351 -277 459 -37 57 -68 106 -68
108 0 2 -5 9 -10 16 -6 7 -28 39 -49 72 l-38 59 44 44 c75 76 99 136 193 477
38 139 87 335 109 435 42 188 43 192 60 300 6 36 13 74 15 85 7 39 16 100 31
225 10 80 8 194 -5 255 -27 136 -126 282 -245 360 -60 40 -181 96 -245 114
l-46 12 0 67 c1 214 -49 358 -159 460 -125 116 -284 200 -575 307 -85 30 -164
62 -177 70 -43 29 -48 61 -26 170 52 260 51 317 -12 500 -51 150 -100 239
-157 288 -29 24 -63 50 -76 56 -73 38 -190 49 -268 26z m-214 -2736 c24 -44
57 -202 66 -309 6 -79 -12 -115 -81 -159 -83 -53 -304 -102 -463 -103 -122 -1
-188 8 -196 28 -6 16 12 30 129 96 168 94 325 232 397 348 64 102 105 145 124
129 9 -7 19 -20 24 -30z m-109 -1606 c2 -9 4 -45 13 -268 4 -93 9 -204 11
-245 2 -41 7 -156 10 -255 4 -99 9 -183 11 -187 8 -12 -9 -39 -21 -34 -7 2
-59 8 -116 12 -57 3 -113 10 -123 14 -21 7 -21 -9 -11 650 2 118 4 239 4 268
l1 52 110 0 c61 0 111 -3 111 -7z m1003 -50 c9 -77 14 -124 21 -208 7 -76 11
-118 20 -210 6 -61 8 -83 20 -210 3 -38 8 -86 10 -105 2 -19 6 -71 10 -115 3
-44 8 -92 11 -106 l4 -27 -163 5 c-89 2 -165 7 -169 11 -4 4 -9 147 -13 317
-3 171 -8 399 -10 508 l-4 197 128 0 129 0 6 -57z m859 -58 c27 -60 85 -193
129 -295 44 -101 88 -202 98 -225 10 -22 42 -94 70 -160 29 -66 63 -144 76
-173 13 -29 24 -55 24 -58 0 -3 -26 -3 -57 0 -314 29 -716 29 -920 0 l-41 -6
-10 54 c-12 59 -20 118 -27 193 -3 28 -7 64 -9 80 -7 47 -37 267 -42 300 -2
17 -11 80 -19 140 -16 115 -20 140 -30 218 l-7 47 358 -2 358 -3 49 -110z"/>
</g>
</svg>
