<?xml version="1.0" standalone="no"?>
<!DOCTYPE svg PUBLIC "-//W3C//DTD SVG 20010904//EN"
 "http://www.w3.org/TR/2001/REC-SVG-20010904/DTD/svg10.dtd">
<svg version="1.0" xmlns="http://www.w3.org/2000/svg"
 width="450.000000pt" height="450.000000pt" viewBox="0 0 450.000000 450.000000"
 preserveAspectRatio="xMidYMid meet">
<metadata>
Created by potrace 1.11, written by Peter Selinger 2001-2013
</metadata>
<g transform="translate(0.000000,450.000000) scale(0.100000,-0.100000)"
fill="#000000" stroke="none">
<path d="M2263 4409 c-60 -11 -95 -32 -141 -84 -60 -68 -76 -127 -75 -264 2
-132 24 -218 78 -309 31 -52 32 -58 18 -69 -9 -7 -31 -13 -47 -14 -34 0 -130
-35 -162 -59 -32 -23 -70 -89 -93 -156 -19 -56 -51 -222 -66 -334 -36 -273
-66 -343 -191 -435 -21 -17 -41 -33 -44 -36 -14 -18 -314 -238 -407 -300 -125
-82 -176 -128 -206 -184 -20 -39 -21 -52 -20 -425 0 -212 2 -500 3 -640 2
-201 0 -269 -12 -322 -15 -66 -15 -68 9 -117 14 -28 23 -57 20 -64 -6 -17
-105 -44 -231 -63 -119 -18 -175 -46 -200 -99 -48 -99 -13 -107 469 -101 198
3 371 8 385 12 54 15 62 32 54 109 -4 38 -6 120 -5 180 6 217 5 281 -3 340
-19 137 -21 193 -21 457 0 275 0 278 23 300 20 21 32 23 115 22 51 0 137 -4
192 -9 55 -4 106 -8 113 -8 7 0 10 -7 8 -16 -3 -9 -8 -50 -11 -91 -8 -103 -15
-178 -19 -225 -3 -22 -8 -83 -11 -135 -4 -52 -9 -111 -12 -130 -2 -19 -6 -192
-8 -385 -3 -353 0 -400 30 -375 8 7 14 15 13 18 -2 7 12 134 17 162 2 8 6 44
9 80 4 36 9 76 11 90 2 14 7 58 10 97 4 40 8 81 10 90 2 10 4 33 4 51 1 31 2
33 34 28 17 -3 59 -8 92 -11 33 -4 61 -8 62 -9 3 -3 14 -121 17 -188 1 -31 -3
-89 -10 -130 -11 -65 -11 -155 1 -166 2 -3 -11 -22 -30 -44 -45 -53 -56 -112
-26 -141 20 -20 33 -22 214 -24 224 -2 281 7 303 48 19 38 18 52 -11 109 -27
54 -32 99 -12 119 9 9 11 61 10 202 -2 104 0 189 5 190 4 0 51 3 105 5 110 6
103 12 112 -86 6 -68 10 -94 25 -200 5 -36 12 -81 15 -100 2 -19 6 -44 9 -55
2 -11 7 -42 10 -68 17 -116 26 -147 42 -147 11 0 13 21 9 123 -7 171 -13 296
-21 407 -8 130 -8 134 5 126 27 -17 541 -28 619 -14 21 4 31 -11 106 -156 78
-153 232 -430 261 -469 7 -10 20 -17 28 -15 13 2 7 27 -27 133 -94 284 -160
451 -270 675 -81 168 -271 530 -310 592 -7 13 -6 21 6 35 27 31 46 77 83 202
20 68 38 130 41 139 32 131 74 305 78 328 77 405 68 521 -50 640 -56 56 -104
85 -189 115 -46 16 -50 20 -51 52 -9 190 -39 256 -161 343 -69 50 -185 106
-320 154 -129 45 -130 48 -109 163 30 165 27 202 -31 350 -54 139 -153 207
-270 186z m-158 -1771 c22 -79 33 -178 23 -213 -23 -79 -68 -95 -277 -95 -86
0 -162 4 -170 9 -10 7 4 18 55 44 93 47 182 114 230 173 21 27 44 55 51 62 7
7 20 26 30 42 25 43 40 37 58 -22z m1056 -968 c4 -8 22 -51 40 -95 36 -90 161
-385 208 -488 31 -69 38 -92 24 -84 -31 19 -377 28 -535 14 -80 -7 -88 -6 -89
10 -1 10 -3 27 -4 38 -2 11 -6 47 -10 80 -3 33 -8 74 -10 90 -2 17 -6 57 -10
90 -5 54 -8 77 -20 165 -7 50 -18 136 -21 158 -1 15 3 22 14 23 97 4 217 11
219 12 1 1 43 2 94 2 71 0 93 -3 100 -15z m-1125 -75 c6 -229 17 -511 20 -517
9 -14 -23 -22 -98 -25 -82 -4 -83 -3 -80 47 5 86 14 300 17 410 2 80 4 149 5
153 0 4 30 7 67 5 l67 -3 2 -70z m635 43 c1 -18 2 -44 4 -58 1 -14 5 -74 9
-135 4 -60 9 -126 11 -145 2 -19 6 -73 10 -120 3 -47 8 -104 11 -128 l6 -42
-49 5 c-26 3 -55 8 -63 10 -9 3 -35 6 -58 7 l-42 1 -1 86 c0 47 -3 191 -5 319
l-4 232 85 0 85 0 1 -32z"/>
</g>
</svg>
